<svg viewBox="0 0 177 110" xmlns="http://www.w3.org/2000/svg"><g transform="matrix(.1 0 0 -.1 0 110)"><path d="m1343 1022c6-25 166-152 192-152 14 0 2 32-22 61-27 32-113 79-145 79-9 0-19 5-21 10-3 6-5 7-4 2z"/><path d="m356 994c-65-23-106-54-127-95-24-48-12-51 48-11 44 29 141 123 126 121-4 0-25-7-47-15z"/><path d="m1551 904c43-82 39-88-33-48-35 20-67 40-72 45-13 12-26 12-26 0 0-18 61-70 135-114l75-45v59c0 75-19 113-70 139l-39 20z"/><path d="m166 906c-35-32-36-36-36-105 0-39 2-71 4-71 13 0 159 105 180 131 26 31 29 52 4 31-7-6-42-26-77-46l-63-36 6 27c4 16 15 45 25 66 24 48 6 50-43 3z"/><path d="m1654 856c10-29-5-172-16-152-11 19-128 99-136 92-2-3 4-18 14-35 21-33 145-164 150-158 12 12 54 122 54 143 0 35-23 86-50 109-22 19-23 19-16 1z"/><path d="m88 843c-24-28-48-80-48-105 0-13 15-55 33-93l34-70 16 30c8 17 36 50 62 75 44 42 81 97 73 106-7 6-105-64-125-90l-20-25-7 78c-3 43-3 86 0 95 8 21 1 20-18-1z"/><path d="m1737 704c-4-4-7-14-7-23 1-18-62-141-71-141-4 0-10 11-13 24-3 14-25 47-48 73l-41 48 6-46c3-25 17-70 31-100 14-29 26-64 26-76 0-32 8-29 63 21 53 50 77 98 76 153-1 44-11 77-22 67z"/><path d="m14 675c-26-66 4-144 82-210 51-44 54-45 54-22 0 13 11 51 25 84 13 34 27 81 31 105l6 43-31-35c-18-19-41-55-53-80-20-42-21-43-30-21-4 13-18 37-30 53-12 17-27 47-34 67-11 32-13 34-20 16z"/><path d="m1552 510c-7-19-16-67-21-106s-14-81-21-94c-11-20-10-21 12-15 48 15 158 78 192 111s64 99 51 112c-4 4-12 0-18-8-7-8-45-43-85-78l-72-64-1 54c0 29-6 69-13 88l-13 35z"/><path d="m190 481c-7-28-10-67-8-86 3-23 0-32-7-27-20 12-97 76-133 110-19 18-37 31-39 28-12-11 22-80 54-111s187-115 212-115c8 0 6 8-3 23-8 12-20 58-26 102-7 44-18 91-25 104-12 23-13 22-25-28z"/><path d="m270 399c0-29 31-115 52-143 13-18 16-27 7-24-8 3-52 21-99 39s-100 43-118 57c-55 40-49 15 9-41 44-43 68-57 124-75 39-11 99-24 135-28l65-6-26 28c-15 16-41 57-58 90-34 64-91 129-91 103z"/><path d="m1462 383c-11-16-33-55-50-88-16-33-39-69-51-79-12-11-21-22-21-26s39-1 88 7c106 16 202 61 245 115 34 43 32 58-4 29-20-16-96-50-219-98-11-5-10-1 4 15 25 29 58 152 40 152-7 0-21-12-32-27z"/><path d="m1281 230c-46-33-99-62-117-66-59-11-46-20 45-32 118-16 167-15 232 4 48 14 134 62 126 70-1 2-23-4-47-12-38-14-238-36-248-28-2 1 9 9 25 18 16 8 42 33 56 55 46 69 37 68-72-9z"/><path d="m418 243c34-44 61-68 82-76 8-3-19-6-60-6-68-1-162 14-215 33l-20 8 20-17c75-64 198-86 339-61 49 9 94 16 100 17 6 0-14 8-45 18-32 10-90 41-130 70-88 61-113 66-71 14z"/><path d="m725 142c-11-2-59-15-108-29-68-19-105-24-167-21-44 2-80 2-80 0 0-8 79-34 124-42 68-11 130 2 227 46 117 52 146 41 35-14-82-41-102-63-63-70 8-2 37 12 64 31 26 19 67 44 90 56 40 20 45 20 80 6 21-9 66-34 101-57 52-34 65-38 78-28 13 12 10 17-28 40-24 15-65 35-93 46-44 17-47 19-23 22 15 2 57-10 95-26 100-44 150-55 216-48 56 6 156 41 145 51-2 3-20 0-39-5-52-15-85-12-214 19-106 25-138 28-270 28-82-1-159-3-170-5z"/></g></svg>