<svg preserveAspectRatio="xMidYMid meet" viewBox="0 0 600 513" xmlns="http://www.w3.org/2000/svg"><g transform="matrix(.1 0 0 -.1 0 513)"><path d="m4557 5117c-3-8 15-31 42-54 26-23 93-108 149-190 156-227 212-292 352-403 69-55 131-100 138-100 19 0 14 39-18 140-48 148-109 266-178 341-97 105-239 195-400 253-86 31-79 29-85 13z"/><path d="m1285 5057c-107-45-137-61-222-119-93-64-199-177-239-253-36-68-86-211-108-304-21-89-5-89 102 0 161 136 213 195 345 394 69 105 148 212 175 239 29 28 48 54 45 62-7 18-6 19-98-19z"/><path d="m5164 4826c-4-9 7-37 24-63 60-93 92-181 141-383 27-113 58-229 69-258 11-28 19-52 17-52-1 0-21 27-44 59-50 72-110 127-237 217-108 76-242 197-263 238-8 14-21 26-29 26-12 0-14-10-9-48 9-75 52-170 114-252 79-106 97-125 296-297 98-86 201-183 229-217 28-33 55-61 61-61 5 0 9 120 10 295 0 329-7 377-75 518-57 116-286 325-304 278z"/><path d="m704 4737c-184-136-281-325-286-556-3-150 12-506 21-509 5-2 32 27 60 62 28 36 131 138 229 225 268 242 366 380 397 564 5 31 3 37-12 37-10 0-29-18-43-41-32-52-114-129-243-226-139-106-172-137-228-217-27-38-49-67-49-64s9 31 20 63 38 142 60 244c46 217 56 248 116 359 62 114 52 128-42 59z"/><path d="m5595 4391c-3-6 4-38 17-73 26-75 27-157 6-488-9-128-11-248-7-295 14-149 11-160-21-67-50 144-78 182-282 385-105 103-194 187-200 187-25 0 27-192 82-301 17-33 74-122 128-197 192-273 266-396 302-505 22-69 39-45 80 108 20 77 53 192 73 255 55 180 71 284 64 420-11 192-61 342-170 502-52 78-61 86-72 69z"/><path d="m302 4273c-151-223-203-492-147-763 8-36 33-121 56-190s59-183 79-255c22-75 43-130 50-130s34 50 60 110c52 123 79 168 237 405 61 91 124 192 141 225 56 113 99 285 76 307-8 8-309-301-361-371-49-64-94-164-119-264-9-37-18-66-19-65-1 2 2 62 7 135 8 109 7 175-11 385-26 309-26 365-2 450 10 37 16 70 13 73-12 12-23 2-60-52z"/><path d="m5890 3512c0-124-22-211-108-432-94-241-115-306-133-420l-13-85-13 115c-14 117-49 254-85 325-12 22-57 101-101 175s-91 159-103 188c-15 32-30 52-40 52-14 0-15-10-9-82 17-212 56-408 121-608 83-259 96-316 100-445 3-86 7-121 16-123 7-1 34 31 60 70 26 40 86 123 133 183 243 312 320 680 227 1085-13 54-22 76-35 78-15 3-17-6-17-76z"/><path d="m57 3513c-11-18-36-154-47-247-20-188 18-442 92-610 46-105 104-197 198-315 47-58 108-136 134-174 26-37 52-64 58-61 6 4 8 27 4 59-11 94 24 287 89 496 51 163 87 353 106 556 12 124 10 163-9 163-5 0-18-24-30-52-12-29-62-125-111-212-60-107-100-191-120-255-34-108-56-250-49-323 8-74-1-51-28 74-27 131-31 142-137 393-94 224-106 267-116 397-7 89-20 134-34 111z"/><path d="m5300 2716c0-2-9-39-20-83-33-134-58-336-75-600-17-288-33-383-81-501-32-81-35-102-13-102 5 0 65 37 132 82 533 356 736 630 754 1016 6 117 5 122-14 122-15 0-26-16-47-68-40-103-121-227-206-317-99-104-164-187-284-362-54-79-99-143-101-143-1 0 8 27 21 60 61 150 64 329 10 630-20 113-39 220-42 238-3 19-11 32-19 32s-15-2-15-4z"/><path d="m673 2663c-7-3-13-20-13-40 0-19-14-119-31-221-50-303-42-518 26-652 14-29 22-49 17-46-6 3-54 67-107 142-108 151-218 286-290 354-75 72-134 155-192 269-30 58-59 106-66 106-19 0-20-124-2-226 35-205 120-355 304-539 130-129 280-244 483-367 144-89 150-86 95 44-54 127-68 201-92 513-18 224-46 415-81 548-27 106-34 121-51 115z"/><path d="m5068 2052c-94-99-140-196-253-531-118-351-177-481-258-569-23-24-28-35-19-44 8-8 35-5 109 15 54 14 154 38 222 52 149 32 238 62 352 122 219 115 402 307 508 534 93 200 79 229-42 90-104-120-149-155-337-261-117-66-368-227-510-327-16-12-9 0 18 32 125 143 175 286 217 623 9 73 25 166 34 207 23 95 11 112-41 57z"/><path d="m888 2024c-3-3 3-37 13-77 20-78 39-182 63-345 28-188 92-342 196-470l51-63-53 39c-108 79-393 249-557 332-95 48-156 96-262 208-107 114-132 122-98 32 154-407 478-670 918-750 63-11 163-32 223-46 59-14 112-23 117-19 6 3-9 31-33 63-43 56-123 193-153 262-8 19-55 147-104 283-113 315-163 415-257 519-32 36-51 45-64 32z"/><path d="m4665 1438c-49-28-124-101-274-267-89-98-191-203-226-233-78-65-227-149-319-179-67-22-85-44-43-54 12-3 121-25 242-49 121-25 253-52 293-61 93-20 255-21 352-2 198 39 363 125 506 264 53 52 134 155 134 172 0 22-20 19-56-10-58-46-209-117-299-140-49-12-157-25-280-34-110-8-263-25-340-39-77-13-141-23-143-21-2 1 19 11 46 20 157 57 278 210 397 500 20 50 41 94 46 100 13 14 11 45-3 45-7 0-22-6-33-12z"/><path d="m1315 1400c-3-5 3-26 15-47 11-21 47-94 79-163 123-258 223-367 384-420 21-6 37-13 35-15-2-1-59 6-128 16s-218 23-331 29c-113 5-239 16-280 24-117 25-239 77-327 139-30 22-45 28-53 20-23-23 132-194 244-271 231-160 535-212 808-138 53 14 179 44 280 66 101 23 192 43 202 46 35 11 17 33-40 49-32 9-112 44-178 77l-120 61-235 237c-202 204-311 300-341 300-4 0-11-4-14-10z"/><path d="m3253 720c-35-5-91-17-125-26-78-22-133-22-223 0-38 9-124 19-190 23-193 9-255-6-577-141-355-148-383-157-538-163-141-6-234 9-326 51-49 23-75 21-59-4 15-24 178-136 251-171 122-59 218-81 354-82 216-1 365 62 620 262 162 127 234 156 380 149l75-3-75-39c-165-85-339-217-495-376l-80-81 63-59 62-60 79 88c173 192 382 378 519 461l54 32 61-35c138-77 356-261 520-437l87-94 59 59c50 49 58 62 50 78-16 30-251 230-349 297-50 35-138 87-195 117l-103 53 45 7c67 10 160-1 227-26 32-12 97-52 144-87 185-141 334-225 464-259 42-11 101-16 178-16 136 1 231 22 353 80 79 37 222 136 261 180 29 34-2 38-58 8-82-44-180-59-340-53-161 5-152 3-536 152-124 48-247 94-275 102-61 17-277 25-362 13z"/></g></svg>